<?xml version="1.0" encoding="utf-8"?>
<!-- Generator: Adobe Illustrator 19.2.1, SVG Export Plug-In . SVG Version: 6.00 Build 0)  -->
<svg version="1.1" id="Google_" xmlns="http://www.w3.org/2000/svg" xmlns:xlink="http://www.w3.org/1999/xlink" x="0px" y="0px"
	 viewBox="0 0 216 432" style="enable-background:new 0 0 216 432;" xml:space="preserve">
<style type="text/css">
	.st0{fill:#8C8C8C;}
	.st1{fill:#FC5345;}
</style>
<path class="st0" d="M144.2,102.3H95.7v16.2h29.6c-5.7,18.2-25.2,28.4-43.4,22.7c-18.2-5.7-28.4-25.2-22.7-43.4S84.4,69.3,102.6,75
	c5.4,1.7,10.3,4.7,14.2,8.7l11.7-12.8c-20.5-20.1-53.4-19.8-73.4,0.7s-19.8,53.4,0.7,73.4c9.7,9.5,22.8,14.9,36.4,14.9
	c25.1,0,47.1-17.8,51.9-41.5V102.3L144.2,102.3z"/>
<polygon class="st0" points="175.7,102.2 165.8,102.2 165.8,92.3 157.3,92.3 157.3,102.2 147.3,102.2 147.3,110.7 157.3,110.7 
	157.3,120.7 165.8,120.7 165.8,110.7 175.7,110.7 "/>
<path class="st1" d="M144.2,318.4H95.7v16.2h29.6c-5.7,18.2-25.2,28.4-43.4,22.7c-18.2-5.7-28.4-25.2-22.7-43.4
	c5.7-18.2,25.2-28.4,43.4-22.7c5.4,1.7,10.3,4.7,14.2,8.7l11.7-12.8c-20.5-20.1-53.4-19.8-73.4,0.7s-19.8,53.4,0.7,73.4
	c9.7,9.5,22.8,14.9,36.4,14.9c25.1,0,47.1-17.8,51.9-41.5V318.4L144.2,318.4z"/>
<polygon class="st1" points="175.7,318.3 165.8,318.3 165.8,308.4 157.3,308.4 157.3,318.3 147.3,318.3 147.3,326.8 157.3,326.8 
	157.3,336.7 165.8,336.7 165.8,326.8 175.7,326.8 "/>
</svg>
