<svg id="Google_" data-name="Google +" xmlns="http://www.w3.org/2000/svg" viewBox="0 0 216 432"><defs><style>.cls-1{fill:#8c8c8c;}.cls-2{fill:#383838;}</style></defs><title>Google + Rotate</title><path class="cls-1" d="M144.19,102.27H95.73v16.16H125.3a34.63,34.63,0,1,1-8.42-34.73L128.6,70.94a51.93,51.93,0,1,0-36.34,89c25.12,0,47.12-17.84,51.93-41.54V102.27h0Z"/><polygon class="cls-1" points="175.67 102.24 165.75 102.24 165.75 92.32 157.25 92.32 157.25 102.24 147.34 102.24 147.34 110.73 157.25 110.73 157.25 120.65 165.75 120.65 165.75 110.73 175.67 110.73 175.67 102.24"/><path class="cls-2" d="M144.19,318.36H95.73v16.16H125.3a34.63,34.63,0,1,1-8.42-34.73L128.6,287a51.93,51.93,0,1,0-36.34,89c25.12,0,47.12-17.84,51.93-41.54V318.36h0Z"/><polygon class="cls-2" points="175.67 318.33 165.75 318.33 165.75 308.42 157.25 308.42 157.25 318.33 147.34 318.33 147.34 326.83 157.25 326.83 157.25 336.74 165.75 336.74 165.75 326.83 175.67 326.83 175.67 318.33"/></svg>